<mxfile host="app.diagrams.net" modified="2023-04-16T16:07:50.301Z" agent="Mozilla/5.0 (Macintosh; Intel Mac OS X 10_15_7) AppleWebKit/605.1.15 (KHTML, like Gecko) Version/16.1 Safari/605.1.15" etag="guYhfZz_6NEclOyCslRz" version="21.1.1" type="device">
  <diagram id="VAVi1YKjVRJqLHZ-ZNy8" name="Page-1">
    <mxGraphModel dx="795" dy="446" grid="1" gridSize="10" guides="1" tooltips="1" connect="1" arrows="1" fold="1" page="1" pageScale="1" pageWidth="827" pageHeight="1169" math="0" shadow="0">
      <root>
        <mxCell id="0" />
        <mxCell id="1" parent="0" />
        <mxCell id="ZujHqDTJF_WJ8wgV4mFm-2" value="&lt;font style=&quot;font-size: 16px;&quot;&gt;Алгоритм метода&lt;br&gt;&lt;/font&gt;" style="text;whiteSpace=wrap;html=1;" parent="1" vertex="1">
          <mxGeometry x="240" y="30" width="140" height="30" as="geometry" />
        </mxCell>
        <mxCell id="yC-D3wQTw3cn47xrVeYs-10" style="edgeStyle=orthogonalEdgeStyle;rounded=0;orthogonalLoop=1;jettySize=auto;html=1;entryX=0.5;entryY=0;entryDx=0;entryDy=0;" edge="1" parent="1" source="ZujHqDTJF_WJ8wgV4mFm-4" target="ZujHqDTJF_WJ8wgV4mFm-6">
          <mxGeometry relative="1" as="geometry" />
        </mxCell>
        <mxCell id="ZujHqDTJF_WJ8wgV4mFm-4" value="&lt;div&gt;array[&amp;nbsp; ]&lt;/div&gt;&lt;div&gt;&lt;br&gt;&lt;/div&gt;n = 3" style="shape=parallelogram;perimeter=parallelogramPerimeter;whiteSpace=wrap;html=1;fixedSize=1;fontSize=16;" parent="1" vertex="1">
          <mxGeometry x="220" y="220" width="180" height="70" as="geometry" />
        </mxCell>
        <mxCell id="yC-D3wQTw3cn47xrVeYs-8" style="edgeStyle=orthogonalEdgeStyle;rounded=0;orthogonalLoop=1;jettySize=auto;html=1;entryX=0.5;entryY=0;entryDx=0;entryDy=0;" edge="1" parent="1" source="ZujHqDTJF_WJ8wgV4mFm-6" target="ZujHqDTJF_WJ8wgV4mFm-8">
          <mxGeometry relative="1" as="geometry" />
        </mxCell>
        <mxCell id="ZujHqDTJF_WJ8wgV4mFm-6" value="&lt;div&gt;realSize = 0&lt;/div&gt;&lt;div&gt;&lt;br&gt;&lt;/div&gt;&lt;div&gt;result [ &amp;nbsp;]&lt;br&gt;&lt;/div&gt;" style="rounded=0;whiteSpace=wrap;html=1;fontSize=16;" parent="1" vertex="1">
          <mxGeometry x="218" y="330" width="184" height="100" as="geometry" />
        </mxCell>
        <mxCell id="yC-D3wQTw3cn47xrVeYs-5" style="edgeStyle=orthogonalEdgeStyle;rounded=0;orthogonalLoop=1;jettySize=auto;html=1;entryX=0.497;entryY=-0.03;entryDx=0;entryDy=0;entryPerimeter=0;" edge="1" parent="1" source="ZujHqDTJF_WJ8wgV4mFm-8" target="FlDHweF_LkroiOLjE4Lx-2">
          <mxGeometry relative="1" as="geometry" />
        </mxCell>
        <mxCell id="yC-D3wQTw3cn47xrVeYs-7" style="edgeStyle=orthogonalEdgeStyle;rounded=0;orthogonalLoop=1;jettySize=auto;html=1;entryX=0.538;entryY=-0.033;entryDx=0;entryDy=0;entryPerimeter=0;" edge="1" parent="1" source="ZujHqDTJF_WJ8wgV4mFm-8">
          <mxGeometry relative="1" as="geometry">
            <mxPoint x="559.1200000000001" y="607.3600000000001" as="targetPoint" />
          </mxGeometry>
        </mxCell>
        <mxCell id="ZujHqDTJF_WJ8wgV4mFm-8" value="i &amp;lt; n" style="rhombus;whiteSpace=wrap;html=1;fontSize=16;" parent="1" vertex="1">
          <mxGeometry x="220" y="480" width="180" height="80" as="geometry" />
        </mxCell>
        <mxCell id="ZujHqDTJF_WJ8wgV4mFm-12" value="" style="edgeStyle=orthogonalEdgeStyle;rounded=0;orthogonalLoop=1;jettySize=auto;html=1;fontSize=16;" parent="1" source="ZujHqDTJF_WJ8wgV4mFm-10" target="ZujHqDTJF_WJ8wgV4mFm-11" edge="1">
          <mxGeometry relative="1" as="geometry" />
        </mxCell>
        <mxCell id="ZujHqDTJF_WJ8wgV4mFm-10" value="result[realSize] = value" style="rounded=0;whiteSpace=wrap;html=1;fontSize=16;" parent="1" vertex="1">
          <mxGeometry x="212" y="810" width="198" height="80" as="geometry" />
        </mxCell>
        <mxCell id="ZujHqDTJF_WJ8wgV4mFm-13" style="edgeStyle=orthogonalEdgeStyle;rounded=0;orthogonalLoop=1;jettySize=auto;html=1;exitX=0.5;exitY=0;exitDx=0;exitDy=0;entryX=0;entryY=0.5;entryDx=0;entryDy=0;fontSize=16;" parent="1" source="ZujHqDTJF_WJ8wgV4mFm-11" target="ZujHqDTJF_WJ8wgV4mFm-8" edge="1">
          <mxGeometry relative="1" as="geometry" />
        </mxCell>
        <mxCell id="ZujHqDTJF_WJ8wgV4mFm-11" value="realSize ++" style="rounded=0;whiteSpace=wrap;html=1;fontSize=16;" parent="1" vertex="1">
          <mxGeometry x="20" y="620" width="120" height="80" as="geometry" />
        </mxCell>
        <mxCell id="yC-D3wQTw3cn47xrVeYs-4" style="edgeStyle=orthogonalEdgeStyle;rounded=0;orthogonalLoop=1;jettySize=auto;html=1;entryX=0.5;entryY=0;entryDx=0;entryDy=0;" edge="1" parent="1" source="FlDHweF_LkroiOLjE4Lx-2" target="ZujHqDTJF_WJ8wgV4mFm-10">
          <mxGeometry relative="1" as="geometry" />
        </mxCell>
        <mxCell id="yC-D3wQTw3cn47xrVeYs-6" style="edgeStyle=orthogonalEdgeStyle;rounded=0;orthogonalLoop=1;jettySize=auto;html=1;entryX=1;entryY=0.5;entryDx=0;entryDy=0;" edge="1" parent="1" source="FlDHweF_LkroiOLjE4Lx-2" target="ZujHqDTJF_WJ8wgV4mFm-11">
          <mxGeometry relative="1" as="geometry" />
        </mxCell>
        <mxCell id="FlDHweF_LkroiOLjE4Lx-2" value="value.Lenght &amp;lt;= n" style="rhombus;whiteSpace=wrap;html=1;fontSize=16;" parent="1" vertex="1">
          <mxGeometry x="221" y="620" width="180" height="80" as="geometry" />
        </mxCell>
        <mxCell id="FlDHweF_LkroiOLjE4Lx-6" value="ДА" style="text;html=1;align=center;verticalAlign=middle;resizable=0;points=[];autosize=1;strokeColor=none;fillColor=none;" parent="1" vertex="1">
          <mxGeometry x="310" y="735" width="40" height="30" as="geometry" />
        </mxCell>
        <mxCell id="FlDHweF_LkroiOLjE4Lx-8" value="НЕТ" style="text;html=1;align=center;verticalAlign=middle;resizable=0;points=[];autosize=1;strokeColor=none;fillColor=none;" parent="1" vertex="1">
          <mxGeometry x="162" y="625" width="50" height="30" as="geometry" />
        </mxCell>
        <mxCell id="yC-D3wQTw3cn47xrVeYs-9" style="edgeStyle=orthogonalEdgeStyle;rounded=0;orthogonalLoop=1;jettySize=auto;html=1;entryX=0.5;entryY=0;entryDx=0;entryDy=0;" edge="1" parent="1" source="yC-D3wQTw3cn47xrVeYs-1" target="ZujHqDTJF_WJ8wgV4mFm-4">
          <mxGeometry relative="1" as="geometry" />
        </mxCell>
        <mxCell id="yC-D3wQTw3cn47xrVeYs-1" value="&lt;font style=&quot;font-size: 14px;&quot;&gt;Start&lt;/font&gt;" style="ellipse;whiteSpace=wrap;html=1;" vertex="1" parent="1">
          <mxGeometry x="250" y="90" width="120" height="80" as="geometry" />
        </mxCell>
        <mxCell id="yC-D3wQTw3cn47xrVeYs-2" value="&lt;font style=&quot;font-size: 16px;&quot;&gt;End&lt;/font&gt;" style="ellipse;whiteSpace=wrap;html=1;" vertex="1" parent="1">
          <mxGeometry x="500" y="720" width="120" height="80" as="geometry" />
        </mxCell>
        <mxCell id="yC-D3wQTw3cn47xrVeYs-12" style="edgeStyle=orthogonalEdgeStyle;rounded=0;orthogonalLoop=1;jettySize=auto;html=1;entryX=0.5;entryY=0;entryDx=0;entryDy=0;" edge="1" parent="1" source="yC-D3wQTw3cn47xrVeYs-11" target="yC-D3wQTw3cn47xrVeYs-2">
          <mxGeometry relative="1" as="geometry" />
        </mxCell>
        <mxCell id="yC-D3wQTw3cn47xrVeYs-11" value="&lt;font style=&quot;font-size: 16px;&quot;&gt;return result&lt;/font&gt;" style="rounded=0;whiteSpace=wrap;html=1;" vertex="1" parent="1">
          <mxGeometry x="500" y="610" width="120" height="60" as="geometry" />
        </mxCell>
      </root>
    </mxGraphModel>
  </diagram>
</mxfile>
